<svg width="2573" height="769" viewBox="0 0 2573 769" fill="none" xmlns="http://www.w3.org/2000/svg">
<path d="M79.3805 601.7C79.3805 628.034 66.4048 641.01 40.0719 641.01H0V338.738C4.198 244.469 53.0475 197.526 148.075 197.526C246.156 197.526 295.005 250.576 295.005 357.058C295.005 464.685 253.025 520.407 169.065 523.078C129.757 523.078 99.6072 507.049 79.3805 474.226V601.7ZM146.93 452.09C190.055 452.09 212.19 421.558 213.717 360.493C213.717 296.375 190.818 264.697 145.404 264.697C99.9888 264.697 78.6172 296.375 78.9988 360.493C82.0519 421.558 103.805 452.09 146.93 452.09Z" fill="white"/>
<path d="M332.406 354.005C334.696 251.721 389.27 200.96 494.983 200.96H506.432V283.398H479.718C435.448 283.398 413.313 306.679 413.313 352.86V517.354H332.787V354.005H332.406Z" fill="white"/>
<path d="M828.534 360.874C828.534 469.647 780.066 524.605 684.657 524.605C589.247 524.605 541.161 469.647 541.161 360.874C541.161 250.957 588.866 196.381 684.657 196.381C780.447 196.381 828.534 250.576 828.534 360.874ZM621.686 360.874C622.45 422.321 643.058 453.617 683.893 453.617C724.347 453.617 744.955 421.176 745.337 358.585C745.337 297.138 725.11 266.605 684.275 266.605C642.676 266.224 621.686 297.901 621.686 360.874Z" fill="white"/>
<path d="M946.078 245.233C966.304 212.41 996.454 196.381 1035.76 196.381C1120.1 199.434 1161.7 254.392 1161.7 362.019C1161.7 467.357 1112.85 520.407 1014.77 522.315C916.31 523.078 866.697 475.753 866.697 380.721V111.271H906.769C933.102 111.271 946.078 125.011 946.078 151.345V245.233ZM946.078 358.203C945.314 422.321 967.068 454.38 1012.48 454.38C1057.9 454.38 1080.8 421.94 1080.8 358.203C1078.89 297.138 1056.75 267.369 1014.01 267.369C971.266 267.369 948.367 297.52 946.078 358.203Z" fill="white"/>
<path d="M1338.78 524.605C1242.99 521.552 1195.29 466.212 1195.29 358.585C1195.29 250.957 1243.75 197.144 1339.93 196.762C1440.3 196.762 1487.62 258.209 1481.51 382.247H1276.96C1280.01 430.717 1301 455.144 1339.54 455.144C1358.24 455.144 1375.42 447.51 1391.07 432.244C1398.32 424.611 1407.09 420.794 1417.78 420.794H1476.93C1459.38 487.584 1416.64 524.605 1338.78 524.605ZM1278.48 324.999H1397.55C1392.59 283.017 1373.13 261.644 1339.16 261.644C1305.2 261.644 1284.21 283.017 1278.48 324.999Z" fill="white"/>
<path d="M1600.58 283.398H1521.2C1530.75 225.005 1571.96 195.999 1644.85 195.999C1732.25 195.999 1776.52 224.623 1778.05 283.398V391.025C1778.05 478.425 1725.38 516.972 1639.89 523.078C1563.95 529.185 1511.28 493.691 1511.28 423.848C1513.19 347.898 1568.15 327.67 1648.29 319.656C1682.26 315.457 1699.81 305.153 1699.81 287.978C1697.9 270.04 1681.11 261.262 1648.29 261.262C1620.43 261.644 1604.78 268.514 1600.58 283.398ZM1700.96 387.59V358.203C1682.26 365.836 1660.88 372.706 1637.6 377.286C1605.93 383.392 1589.9 398.277 1589.9 421.558C1591.81 446.747 1604.78 458.579 1629.97 458.579C1674.24 458.579 1700.96 432.244 1700.96 387.59Z" fill="white"/>
<path d="M2082.21 391.025C2082.21 445.602 2068.47 481.096 2040.23 498.652C2011.99 514.682 1981.08 523.078 1947.11 523.078C1914.29 523.078 1884.9 513.919 1857.43 496.362C1829.95 479.188 1816.21 444.457 1816.21 391.025V200.96H1895.59V407.055C1895.59 442.167 1913.53 459.724 1949.4 459.724C1985.27 459.724 2003.21 442.549 2003.21 407.055V240.271C2002.45 213.937 2015.04 200.96 2041.38 200.96H2081.83V391.025H2082.21Z" fill="white"/>
<path d="M2204.72 257.827H2196.32V433.008C2196.32 445.984 2203.95 453.235 2219.6 453.235H2244.02V513.537C2218.45 515.827 2190.21 515.827 2160.45 512.774C2130.68 509.721 2116.18 491.401 2116.94 455.907V110.508H2158.16C2179.15 110.508 2196.32 129.591 2196.32 150.582V200.961H2244.02V218.135C2244.41 241.035 2226.85 257.827 2204.72 257.827Z" fill="white"/>
<path d="M2332.56 573.457C2376.07 573.457 2391.72 552.084 2379.12 510.102L2271.5 200.96H2361.95L2424.54 420.413L2479.49 229.203C2484.46 210.502 2496.67 200.96 2517.28 200.96H2572.99L2448.2 571.167C2429.12 623.072 2410.04 641.01 2344.01 641.01C2323.79 641.01 2313.1 640.247 2310.43 638.72V573.457H2332.56Z" fill="white"/>
<path d="M739.994 73.1056C739.994 73.1056 866.315 -12.0037 866.315 118.523C866.315 249.049 866.315 428.428 866.315 428.428C866.315 428.428 905.624 577.655 1082.32 509.72C1082.32 509.72 947.604 534.91 946.841 343.318L945.696 156.307C946.077 156.307 986.149 -130.699 739.994 73.1056Z" fill="#F7941E"/>
<path d="M1962.76 666.963C1962.38 680.321 1960.85 687.954 1949.78 693.679C1938.33 699.785 1920.4 701.694 1907.8 701.694C1899.79 701.694 1855.52 701.694 1855.52 661.238C1855.52 626.889 1889.1 616.966 1936.81 603.226V587.96C1936.81 576.51 1936.81 555.901 1914.29 555.901C1897.12 555.901 1891.77 569.259 1889.1 575.365C1887.19 581.09 1884.52 588.342 1875.74 588.342C1871.55 588.342 1863.91 585.288 1863.91 575.747C1863.91 557.809 1886.43 540.253 1918.11 540.253C1961.99 540.253 1962.38 572.312 1962.38 587.96V666.963H1962.76ZM1936.81 617.348C1904.37 627.652 1883 634.522 1883 657.803C1883 660.093 1883 686.046 1913.53 686.046C1936.81 686.046 1937.19 672.306 1937.19 664.291V617.348H1936.81Z" fill="#F7941E"/>
<path d="M1995.58 582.617C1995.96 569.259 1995.96 564.297 1999.01 559.336C2005.12 549.794 2028.4 540.253 2054.35 540.253C2109.69 540.253 2123.81 581.854 2123.81 613.913C2123.81 651.315 2102.82 701.694 2054.35 701.694C2037.18 701.694 2027.64 695.205 2022.29 691.389V763.14C2022.29 766.575 2021.53 768.483 2017.33 768.483H2002.45C1997.87 768.483 1995.96 767.72 1995.96 762.759V582.617H1995.58ZM2022.29 673.833C2031.07 679.176 2041.37 683.756 2052.06 683.756C2076.1 683.756 2096.33 660.856 2096.33 618.874C2096.33 582.998 2079.16 556.664 2047.86 556.664C2021.91 556.664 2021.91 572.312 2021.91 583.38V673.833H2022.29Z" fill="#F7941E"/>
<path d="M2150.9 582.617C2151.29 569.259 2151.29 564.297 2154.34 559.336C2160.45 549.794 2183.73 540.253 2209.68 540.253C2265.01 540.253 2279.13 581.854 2279.13 613.913C2279.13 651.315 2258.14 701.694 2209.68 701.694C2192.5 701.694 2182.96 695.205 2177.62 691.389V763.14C2177.62 766.575 2176.86 768.483 2172.66 768.483H2157.77C2153.19 768.483 2151.29 767.72 2151.29 762.759V582.617H2150.9ZM2177.62 673.833C2186.4 679.176 2196.7 683.756 2207.39 683.756C2231.43 683.756 2251.66 660.856 2251.66 618.874C2251.66 582.998 2234.48 556.664 2203.19 556.664C2177.24 556.664 2177.24 572.312 2177.24 583.38V673.833H2177.62Z" fill="#F7941E"/>
</svg>
