<svg width="371" height="93" viewBox="0 0 371 93" fill="none" xmlns="http://www.w3.org/2000/svg">
<path d="M5.86914 87.2867V34.0783C7.10475 33.6665 8.54629 33.3061 10.1938 32.9972C11.8927 32.6368 13.7204 32.3536 15.6768 32.1477C17.6332 31.9418 19.6153 31.8388 21.6231 31.8388C25.8963 31.8388 29.5516 32.6883 32.5892 34.3872C35.6782 36.0862 38.0464 38.5059 39.6939 41.6464C41.3929 44.7869 42.2424 48.5195 42.2424 52.8441C42.2424 56.9628 41.5473 60.6182 40.1573 63.8102C38.7672 66.9507 36.7336 69.4219 34.0565 71.2238C31.4308 72.9743 28.1873 73.8495 24.326 73.8495C22.3182 73.8495 20.4905 73.5921 18.843 73.0772C17.247 72.6139 15.8827 72.0733 14.7501 71.4555V87.2867H5.86914ZM22.7815 66.2042C24.6349 66.2042 26.2052 65.8953 27.4923 65.2774C28.7794 64.6596 29.8348 63.7844 30.6585 62.6518C31.4823 61.4677 32.0743 60.0776 32.4347 58.4816C32.8466 56.8856 33.0525 55.0837 33.0525 53.0758C33.0525 50.2442 32.5892 47.8245 31.6625 45.8166C30.7872 43.7573 29.4744 42.187 27.724 41.1059C26.025 39.9732 23.9657 39.4069 21.5459 39.4069C19.9499 39.4069 18.5856 39.4841 17.453 39.6386C16.3203 39.793 15.4194 39.9475 14.7501 40.1019V63.8102C15.5738 64.3765 16.7065 64.9171 18.148 65.4319C19.5895 65.9467 21.134 66.2042 22.7815 66.2042ZM51.7972 73V34.6961C53.5476 34.0269 55.71 33.3833 58.2841 32.7655C60.9098 32.1477 63.8959 31.8388 67.2423 31.8388C68.2205 31.8388 69.2759 31.916 70.4085 32.0705C71.5412 32.1734 72.6223 32.3279 73.652 32.5338C74.6817 32.7398 75.5312 32.9714 76.2005 33.2289L74.5787 40.6425C73.8065 40.3851 72.7511 40.1277 71.4125 39.8703C70.0739 39.6128 68.5294 39.4841 66.779 39.4841C65.4404 39.4841 64.2048 39.5871 63.0721 39.793C61.9395 39.999 61.1415 40.1792 60.6781 40.3336V73H51.7972ZM99.56 74.0039C95.8017 74.0039 92.4552 73.1287 89.5207 71.3783C86.6376 69.5763 84.3723 67.1051 82.7248 63.9646C81.1288 60.7726 80.3308 57.0401 80.3308 52.7669C80.3308 48.5453 81.1546 44.8642 82.802 41.7237C84.4495 38.5317 86.7405 36.0605 89.6751 34.31C92.6097 32.5596 95.9304 31.6844 99.6372 31.6844C103.396 31.6844 106.716 32.5596 109.599 34.31C112.482 36.0605 114.748 38.5317 116.395 41.7237C118.043 44.8642 118.866 48.5453 118.866 52.7669C118.866 57.0401 118.043 60.7726 116.395 63.9646C114.799 67.1051 112.56 69.5763 109.677 71.3783C106.845 73.1287 103.473 74.0039 99.56 74.0039ZM99.56 66.2814C101.722 66.2814 103.55 65.7408 105.043 64.6596C106.536 63.527 107.694 61.9568 108.518 59.9489C109.342 57.8895 109.754 55.4956 109.754 52.7669C109.754 50.0383 109.342 47.67 108.518 45.6622C107.694 43.6543 106.536 42.1098 105.043 41.0286C103.55 39.896 101.722 39.3297 99.56 39.3297C97.5006 39.3297 95.6987 39.896 94.1542 41.0286C92.6097 42.1098 91.4256 43.6543 90.6018 45.6622C89.8296 47.67 89.4434 50.0383 89.4434 52.7669C89.4434 55.547 89.8296 57.941 90.6018 59.9489C91.4256 61.9568 92.6097 63.527 94.1542 64.6596C95.6987 65.7408 97.5006 66.2814 99.56 66.2814Z" fill="#1E1E1E"/>
<g clip-path="url(#clip0_140_10593)">
<g clip-path="url(#clip1_140_10593)">
<path d="M142.218 74.0039C140.21 74.0039 138.228 73.8752 136.272 73.6178C134.316 73.4119 132.488 73.1545 130.789 72.8455C129.142 72.4852 127.7 72.099 126.464 71.6872V14.5403L135.345 13.073V34.2328C136.478 33.615 137.842 33.0744 139.438 32.6111C141.086 32.0962 142.913 31.8388 144.921 31.8388C148.783 31.8388 152.026 32.714 154.652 34.4645C157.329 36.2149 159.362 38.6861 160.752 41.8781C162.143 45.0186 162.838 48.674 162.838 52.8441C162.838 57.1688 161.988 60.9013 160.289 64.0418C158.642 67.1823 156.273 69.6278 153.184 71.3783C150.147 73.1287 146.492 74.0039 142.218 74.0039ZM142.141 66.2814C144.561 66.2814 146.62 65.7408 148.319 64.6596C150.07 63.5785 151.382 62.0082 152.258 59.9489C153.184 57.8895 153.648 55.4698 153.648 52.6897C153.648 50.6818 153.442 48.8799 153.03 47.2839C152.67 45.6364 152.077 44.2206 151.254 43.0365C150.43 41.8524 149.375 40.9514 148.087 40.3336C146.8 39.7158 145.23 39.4069 143.377 39.4069C141.729 39.4069 140.185 39.6643 138.743 40.1792C137.302 40.694 136.169 41.2603 135.345 41.8781V65.6636C136.015 65.818 136.916 65.9725 138.048 66.1269C139.181 66.2299 140.545 66.2814 142.141 66.2814Z" fill="#1E1E1E"/>
</g>
<path d="M122.917 3.64859L112.321 11.0763L116.205 9.61979C117.899 8.98463 119.668 8.57189 121.468 8.39189L122.379 8.30083C124.746 8.06405 126.801 9.92344 126.801 12.303V54.8066C126.801 56.4141 127.025 58.0138 127.467 59.5594L127.901 61.081C129.722 67.4519 135.357 71.9856 141.97 72.3989H145.923C148.322 72.3989 150.699 71.939 152.925 71.0442L151.525 70.5124C145.476 68.2147 140.776 63.3276 138.715 57.1943C137.955 54.9345 137.568 52.5663 137.568 50.1823V10.3428C137.568 4.94716 132.696 0.859711 127.383 1.79735C125.777 2.08072 124.253 2.71263 122.917 3.64859Z" fill="#F44A01"/>
</g>
<path d="M191.62 74.0039C186.832 74.0039 182.919 73.103 179.881 71.301C176.844 69.4476 174.579 66.9249 173.086 63.7329C171.644 60.541 170.923 56.9628 170.923 52.9986C170.923 48.2621 171.824 44.3236 173.626 41.1831C175.428 37.9911 177.745 35.6229 180.576 34.0783C183.408 32.4823 186.42 31.6844 189.612 31.6844C193.216 31.6844 196.33 32.4309 198.956 33.9239C201.582 35.4169 203.615 37.6822 205.057 40.7197C206.498 43.7058 207.219 47.4641 207.219 51.9947C207.219 52.5095 207.193 53.1016 207.142 53.7708C207.09 54.3887 207.039 54.9807 206.988 55.547H180.036C180.293 58.8935 181.452 61.5191 183.511 63.424C185.622 65.3289 188.659 66.2814 192.624 66.2814C194.992 66.2814 197.103 66.0754 198.956 65.6636C200.809 65.2002 202.251 64.7369 203.281 64.2735L204.594 71.5327C203.564 72.0476 201.839 72.5881 199.419 73.1545C197.051 73.7208 194.451 74.0039 191.62 74.0039ZM180.113 49.0601H198.493C198.441 47.1552 198.081 45.4562 197.412 43.9632C196.794 42.4702 195.841 41.2861 194.554 40.4108C193.267 39.5356 191.645 39.098 189.689 39.098C187.681 39.098 186.008 39.5871 184.669 40.5653C183.331 41.492 182.275 42.7276 181.503 44.2721C180.782 45.7651 180.319 47.3611 180.113 49.0601ZM230.567 73.8495C227.324 73.8495 224.466 73.4376 221.995 72.6139C219.575 71.7386 217.671 70.3486 216.281 68.4437C214.942 66.5388 214.273 64.0161 214.273 60.8756C214.273 57.7866 215.019 55.3154 216.512 53.4619C218.057 51.6085 220.116 50.2957 222.69 49.5234C225.316 48.6997 228.148 48.2878 231.185 48.2878C232.678 48.2878 234.094 48.3908 235.432 48.5967C236.823 48.7512 237.801 48.9314 238.367 49.1373V47.5156C238.367 45.9711 238.11 44.581 237.595 43.3454C237.131 42.0583 236.282 41.0286 235.046 40.2564C233.811 39.4841 232.035 39.098 229.718 39.098C227.35 39.098 225.316 39.2782 223.617 39.6386C221.918 39.999 220.528 40.3594 219.447 40.7197L218.288 33.4605C219.421 33.0487 221.094 32.6625 223.308 32.3022C225.522 31.8903 227.967 31.6844 230.644 31.6844C234.763 31.6844 238.007 32.3536 240.375 33.6922C242.743 34.9793 244.416 36.807 245.395 39.1752C246.424 41.5435 246.939 44.2979 246.939 47.4384V71.9188C245.549 72.2277 243.412 72.6139 240.529 73.0772C237.698 73.5921 234.377 73.8495 230.567 73.8495ZM231.34 66.822C232.781 66.822 234.12 66.7705 235.355 66.6675C236.591 66.5645 237.595 66.4358 238.367 66.2814V55.3926C237.852 55.2381 237.054 55.0837 235.973 54.9292C234.943 54.7233 233.759 54.6203 232.421 54.6203C230.876 54.6203 229.383 54.7748 227.942 55.0837C226.552 55.3926 225.393 55.9846 224.466 56.8599C223.54 57.6836 223.076 58.945 223.076 60.6439C223.076 62.9607 223.823 64.5824 225.316 65.5091C226.809 66.3843 228.817 66.822 231.34 66.822ZM274.907 73.8495C270.582 73.8495 267.184 73.0772 264.713 71.5327C262.242 69.9367 260.491 67.7487 259.462 64.9685C258.432 62.1369 257.917 58.8677 257.917 55.1609V32.6883H266.798V53.6936C266.798 56.7312 267.055 59.1766 267.57 61.03C268.137 62.832 269.063 64.1448 270.35 64.9685C271.689 65.7923 273.439 66.2042 275.602 66.2042C277.043 66.2042 278.408 66.1269 279.695 65.9725C280.982 65.818 281.934 65.6893 282.552 65.5864V32.6883H291.356V71.6099C289.605 72.1248 287.289 72.6139 284.405 73.0772C281.574 73.5921 278.408 73.8495 274.907 73.8495ZM317.694 73.9267C313.884 73.9267 310.898 73.2574 308.736 71.9188C306.573 70.5803 305.055 68.6496 304.179 66.1269C303.304 63.6042 302.867 60.5924 302.867 57.0915V21.8767L311.748 20.4094V32.6883H326.42V40.0247H311.748V57.1688C311.748 59.3826 311.979 61.1588 312.443 62.4973C312.957 63.8359 313.73 64.8141 314.759 65.4319C315.841 65.9982 317.205 66.2814 318.852 66.2814C320.448 66.2814 321.89 66.1269 323.177 65.818C324.516 65.4576 325.648 65.0715 326.575 64.6596L328.042 71.6872C326.909 72.202 325.468 72.6911 323.718 73.1545C322.019 73.6693 320.011 73.9267 317.694 73.9267ZM337.833 87.3639C336.288 87.3639 334.847 87.2095 333.508 86.9006C332.17 86.5917 331.14 86.2828 330.419 85.9739L332.041 78.8691C332.813 79.1266 333.663 79.3582 334.589 79.5642C335.568 79.8216 336.572 79.9503 337.601 79.9503C339.197 79.9503 340.562 79.6671 341.694 79.1008C342.827 78.586 343.805 77.7622 344.629 76.6296C345.452 75.497 346.199 74.0554 346.868 72.305C344.912 68.5981 343.007 64.6339 341.154 60.4122C339.3 56.1906 337.524 51.763 335.825 47.1295C334.126 42.4444 332.607 37.6307 331.269 32.6883H340.69C341.205 34.8506 341.849 37.2188 342.621 39.793C343.393 42.3157 344.217 44.9157 345.092 47.5928C346.019 50.27 346.997 52.9214 348.027 55.547C349.056 58.1727 350.086 60.6697 351.116 63.0379C352.3 59.8459 353.381 56.5767 354.359 53.2303C355.389 49.8323 356.367 46.4087 357.294 42.9593C358.22 39.5099 359.07 36.0862 359.842 32.6883H368.955C367.616 37.7337 366.175 42.6761 364.63 47.5156C363.137 52.3036 361.567 56.9371 359.919 61.4162C358.272 65.8438 356.521 70.1427 354.668 74.3128C353.278 77.3504 351.836 79.8216 350.343 81.7265C348.902 83.6829 347.177 85.0987 345.169 85.9739C343.213 86.9006 340.767 87.3639 337.833 87.3639Z" fill="#1E1E1E"/>
<defs>
<clipPath id="clip0_140_10593">
<rect width="53.782" height="73.0884" fill="white" transform="translate(112.321)"/>
</clipPath>
<clipPath id="clip1_140_10593">
<rect width="30.3386" height="71.0199" fill="white" transform="translate(137.144)"/>
</clipPath>
</defs>
</svg>
