<svg width="2573" height="636" viewBox="0 0 2573 636" fill="none" xmlns="http://www.w3.org/2000/svg">
<path d="M79.3805 468.699C79.3805 495.034 66.4048 508.01 40.0719 508.01H0V205.738C4.198 111.469 53.0475 64.5254 148.075 64.5254C246.156 64.5254 295.005 117.576 295.005 224.058C295.005 331.685 253.025 387.407 169.065 390.078C129.757 390.078 99.6072 374.049 79.3805 341.226V468.699ZM146.93 319.09C190.055 319.09 212.19 288.558 213.717 227.493C213.717 163.374 190.818 131.697 145.404 131.697C99.9888 131.697 78.6172 163.374 78.9988 227.493C82.0519 288.558 103.805 319.09 146.93 319.09Z" fill="white"/>
<path d="M332.405 221.005C334.695 118.721 389.269 67.9604 494.982 67.9604H506.432V150.398H479.717C435.447 150.398 413.312 173.679 413.312 219.86V384.354H332.787V221.005H332.405Z" fill="white"/>
<path d="M828.534 227.875C828.534 336.647 780.066 391.605 684.657 391.605C589.247 391.605 541.161 336.647 541.161 227.875C541.161 117.958 588.866 63.3809 684.657 63.3809C780.447 63.3809 828.534 117.576 828.534 227.875ZM621.686 227.875C622.45 289.321 643.058 320.617 683.893 320.617C724.347 320.617 744.955 288.176 745.337 225.585C745.337 164.138 725.11 133.606 684.275 133.606C642.676 133.224 621.686 164.901 621.686 227.875Z" fill="white"/>
<path d="M946.078 112.233C966.304 79.4104 996.454 63.3809 1035.76 63.3809C1120.1 66.4341 1161.7 121.393 1161.7 229.02C1161.7 334.357 1112.85 387.407 1014.77 389.315C916.31 390.079 866.697 342.753 866.697 247.721V-21.7285H906.769C933.102 -21.7285 946.078 -7.98889 946.078 18.3454V112.233ZM946.078 225.203C945.314 289.321 967.068 321.38 1012.48 321.38C1057.9 321.38 1080.8 288.94 1080.8 225.203C1078.89 164.138 1056.75 134.369 1014.01 134.369C971.266 134.369 948.367 164.52 946.078 225.203Z" fill="white"/>
<path d="M1338.78 391.605C1242.99 388.552 1195.29 333.212 1195.29 225.585C1195.29 117.957 1243.75 64.1439 1339.93 63.7622C1440.3 63.7622 1487.62 125.209 1481.51 249.247H1276.96C1280.01 297.717 1301 322.144 1339.54 322.144C1358.24 322.144 1375.42 314.51 1391.07 299.244C1398.32 291.611 1407.09 287.794 1417.78 287.794H1476.93C1459.38 354.584 1416.64 391.605 1338.78 391.605ZM1278.48 191.999H1397.55C1392.59 150.017 1373.13 128.644 1339.16 128.644C1305.2 128.644 1284.21 150.017 1278.48 191.999Z" fill="white"/>
<path d="M1600.58 150.398H1521.2C1530.75 92.0049 1571.96 62.999 1644.85 62.999C1732.25 62.999 1776.52 91.6232 1778.05 150.398V258.025C1778.05 345.425 1725.38 383.972 1639.89 390.078C1563.95 396.185 1511.28 360.691 1511.28 290.848C1513.19 214.898 1568.15 194.67 1648.29 186.656C1682.26 182.457 1699.81 172.153 1699.81 154.978C1697.9 137.04 1681.11 128.262 1648.29 128.262C1620.43 128.644 1604.78 135.514 1600.58 150.398ZM1700.96 254.59V225.203C1682.26 232.836 1660.88 239.706 1637.6 244.286C1605.93 250.392 1589.9 265.277 1589.9 288.558C1591.81 313.747 1604.78 325.579 1629.97 325.579C1674.24 325.579 1700.96 299.244 1700.96 254.59Z" fill="white"/>
<path d="M2082.21 258.025C2082.21 312.602 2068.47 348.096 2040.23 365.652C2011.99 381.682 1981.08 390.078 1947.11 390.078C1914.29 390.078 1884.9 380.919 1857.43 363.362C1829.95 346.188 1816.21 311.457 1816.21 258.025V67.9604H1895.59V274.055C1895.59 309.167 1913.53 326.724 1949.4 326.724C1985.27 326.724 2003.21 309.549 2003.21 274.055V107.271C2002.45 80.9368 2015.04 67.9604 2041.38 67.9604H2081.83V258.025H2082.21Z" fill="white"/>
<path d="M2204.72 124.827H2196.32V300.007C2196.32 312.984 2203.95 320.235 2219.6 320.235H2244.02V380.537C2218.45 382.827 2190.21 382.827 2160.45 379.774C2130.68 376.72 2116.18 358.401 2116.94 322.907V-22.4922H2158.16C2179.15 -22.4922 2196.32 -3.40937 2196.32 17.5817V67.9604H2244.02V85.1349C2244.41 108.034 2226.85 124.827 2204.72 124.827Z" fill="white"/>
<path d="M2332.56 440.457C2376.07 440.457 2391.72 419.084 2379.12 377.102L2271.5 67.9604H2361.95L2424.54 287.413L2479.49 96.203C2484.46 77.5018 2496.67 67.9604 2517.28 67.9604H2572.99L2448.2 438.167C2429.12 490.072 2410.04 508.01 2344.01 508.01C2323.79 508.01 2313.1 507.247 2310.43 505.72V440.457H2332.56Z" fill="white"/>
<path d="M739.994 -59.8944C739.994 -59.8944 866.315 -145.004 866.315 -14.4772C866.315 116.049 866.315 295.428 866.315 295.428C866.315 295.428 905.624 444.655 1082.32 376.72C1082.32 376.72 947.604 401.91 946.841 210.318L945.696 23.3067C946.077 23.3067 986.149 -263.699 739.994 -59.8944Z" fill="#F7941E"/>
<path d="M1962.76 533.963C1962.38 547.321 1960.85 554.954 1949.78 560.679C1938.33 566.785 1920.4 568.694 1907.8 568.694C1899.79 568.694 1855.52 568.694 1855.52 528.238C1855.52 493.889 1889.1 483.966 1936.81 470.226V454.96C1936.81 443.51 1936.81 422.901 1914.29 422.901C1897.12 422.901 1891.77 436.259 1889.1 442.365C1887.19 448.09 1884.52 455.342 1875.74 455.342C1871.55 455.342 1863.91 452.288 1863.91 442.747C1863.91 424.809 1886.43 407.253 1918.11 407.253C1961.99 407.253 1962.38 439.312 1962.38 454.96V533.963H1962.76ZM1936.81 484.348C1904.37 494.652 1883 501.522 1883 524.803C1883 527.093 1883 553.046 1913.53 553.046C1936.81 553.046 1937.19 539.306 1937.19 531.291V484.348H1936.81Z" fill="#F7941E"/>
<path d="M1995.58 449.617C1995.96 436.259 1995.96 431.297 1999.01 426.336C2005.12 416.794 2028.4 407.253 2054.35 407.253C2109.69 407.253 2123.81 448.854 2123.81 480.913C2123.81 518.315 2102.82 568.694 2054.35 568.694C2037.18 568.694 2027.64 562.205 2022.29 558.389V630.14C2022.29 633.575 2021.53 635.483 2017.33 635.483H2002.45C1997.87 635.483 1995.96 634.72 1995.96 629.759V449.617H1995.58ZM2022.29 540.833C2031.07 546.176 2041.37 550.756 2052.06 550.756C2076.1 550.756 2096.33 527.856 2096.33 485.874C2096.33 449.998 2079.16 423.664 2047.86 423.664C2021.91 423.664 2021.91 439.312 2021.91 450.38V540.833H2022.29Z" fill="#F7941E"/>
<path d="M2150.9 449.617C2151.29 436.259 2151.29 431.297 2154.34 426.336C2160.45 416.794 2183.73 407.253 2209.68 407.253C2265.01 407.253 2279.13 448.854 2279.13 480.913C2279.13 518.315 2258.14 568.694 2209.68 568.694C2192.5 568.694 2182.96 562.205 2177.62 558.389V630.14C2177.62 633.575 2176.86 635.483 2172.66 635.483H2157.77C2153.19 635.483 2151.29 634.72 2151.29 629.759V449.617H2150.9ZM2177.62 540.833C2186.4 546.176 2196.7 550.756 2207.39 550.756C2231.43 550.756 2251.66 527.856 2251.66 485.874C2251.66 449.998 2234.48 423.664 2203.19 423.664C2177.24 423.664 2177.24 439.312 2177.24 450.38V540.833H2177.62Z" fill="#F7941E"/>
</svg>
