<svg width="202" height="50" viewBox="0 0 202 50" fill="none" xmlns="http://www.w3.org/2000/svg">
<path d="M3.18975 46.7645V17.8469C3.86128 17.6231 4.64472 17.4272 5.54009 17.2593C6.46344 17.0635 7.45674 16.9096 8.51999 16.7977C9.58324 16.6857 10.6605 16.6298 11.7517 16.6298C14.0741 16.6298 16.0607 17.0915 17.7115 18.0148C19.3903 18.9382 20.6774 20.2532 21.5728 21.96C22.4961 23.6668 22.9578 25.6954 22.9578 28.0457C22.9578 30.2841 22.5801 32.2707 21.8246 34.0055C21.0691 35.7123 19.9639 37.0554 18.5089 38.0347C17.0819 38.986 15.3192 39.4617 13.2207 39.4617C12.1294 39.4617 11.1361 39.3218 10.2408 39.042C9.37339 38.7901 8.63191 38.4964 8.01634 38.1606V46.7645H3.18975ZM12.3813 35.3066C13.3886 35.3066 14.242 35.1387 14.9415 34.803C15.641 34.4672 16.2146 33.9915 16.6622 33.376C17.1099 32.7324 17.4317 31.977 17.6276 31.1096C17.8514 30.2422 17.9633 29.2629 17.9633 28.1716C17.9633 26.6327 17.7115 25.3177 17.2079 24.2264C16.7322 23.1072 16.0187 22.2538 15.0674 21.6662C14.144 21.0507 13.0248 20.7429 11.7097 20.7429C10.8424 20.7429 10.1009 20.7849 9.48531 20.8688C8.86974 20.9527 8.38009 21.0367 8.01634 21.1206V34.0055C8.46403 34.3133 9.07959 34.6071 9.86304 34.8869C10.6465 35.1667 11.4859 35.3066 12.3813 35.3066ZM28.1507 39V18.1827C29.102 17.8189 30.2772 17.4692 31.6762 17.1334C33.1032 16.7977 34.726 16.6298 36.5447 16.6298C37.0764 16.6298 37.65 16.6718 38.2655 16.7557C38.8811 16.8117 39.4687 16.8956 40.0283 17.0075C40.5879 17.1194 41.0496 17.2453 41.4133 17.3852L40.5319 21.4144C40.1122 21.2745 39.5386 21.1346 38.8111 20.9947C38.0836 20.8548 37.2442 20.7849 36.2929 20.7849C35.5654 20.7849 34.8939 20.8408 34.2783 20.9527C33.6628 21.0647 33.2291 21.1626 32.9772 21.2465V39H28.1507ZM54.1087 39.5456C52.0661 39.5456 50.2474 39.07 48.6525 38.1186C47.0856 37.1393 45.8545 35.7963 44.9591 34.0895C44.0917 32.3547 43.6581 30.3261 43.6581 28.0038C43.6581 25.7094 44.1057 23.7088 45.0011 22.002C45.8965 20.2672 47.1416 18.9242 48.7365 17.9728C50.3313 17.0215 52.1361 16.5458 54.1507 16.5458C56.1932 16.5458 57.9979 17.0215 59.5648 17.9728C61.1317 18.9242 62.3629 20.2672 63.2582 22.002C64.1536 23.7088 64.6013 25.7094 64.6013 28.0038C64.6013 30.3261 64.1536 32.3547 63.2582 34.0895C62.3908 35.7963 61.1737 37.1393 59.6068 38.1186C58.0679 39.07 56.2352 39.5456 54.1087 39.5456ZM54.1087 35.3486C55.2839 35.3486 56.2772 35.0548 57.0886 34.4672C57.9 33.8516 58.5296 32.9982 58.9772 31.907C59.4249 30.7878 59.6488 29.4867 59.6488 28.0038C59.6488 26.5208 59.4249 25.2337 58.9772 24.1425C58.5296 23.0513 57.9 22.2118 57.0886 21.6243C56.2772 21.0087 55.2839 20.7009 54.1087 20.7009C52.9895 20.7009 52.0102 21.0087 51.1708 21.6243C50.3313 22.2118 49.6878 23.0513 49.2401 24.1425C48.8204 25.2337 48.6106 26.5208 48.6106 28.0038C48.6106 29.5147 48.8204 30.8158 49.2401 31.907C49.6878 32.9982 50.3313 33.8516 51.1708 34.4672C52.0102 35.0548 52.9895 35.3486 54.1087 35.3486Z" fill="#ECE3DC"/>
<g clip-path="url(#clip0_13_42)">
<g clip-path="url(#clip1_13_42)">
<path d="M77.445 39.5456C76.3538 39.5456 75.2765 39.4757 74.2133 39.3358C73.15 39.2238 72.1567 39.0839 71.2334 38.9161C70.338 38.7202 69.5546 38.5103 68.883 38.2865V7.22842L73.7096 6.43098V17.9309C74.3252 17.5951 75.0667 17.3013 75.9341 17.0495C76.8294 16.7697 77.8227 16.6298 78.914 16.6298C81.0125 16.6298 82.7752 17.1054 84.2022 18.0568C85.6572 19.0081 86.7624 20.3512 87.5179 22.0859C88.2734 23.7927 88.6511 25.7793 88.6511 28.0457C88.6511 30.3961 88.1894 32.4246 87.2661 34.1314C86.3707 35.8382 85.0836 37.1673 83.4048 38.1186C81.754 39.07 79.7674 39.5456 77.445 39.5456ZM77.403 35.3486C78.7181 35.3486 79.8373 35.0548 80.7607 34.4672C81.712 33.8796 82.4255 33.0262 82.9012 31.907C83.4048 30.7878 83.6566 29.4727 83.6566 27.9618C83.6566 26.8706 83.5447 25.8912 83.3209 25.0239C83.125 24.1285 82.8032 23.359 82.3555 22.7155C81.9079 22.0719 81.3343 21.5823 80.6348 21.2465C79.9353 20.9108 79.0819 20.7429 78.0746 20.7429C77.1792 20.7429 76.3398 20.8828 75.5563 21.1626C74.7729 21.4424 74.1573 21.7502 73.7096 22.0859V35.0128C74.0734 35.0968 74.563 35.1807 75.1786 35.2646C75.7942 35.3206 76.5356 35.3486 77.403 35.3486Z" fill="#ECE3DC"/>
</g>
<path d="M66.9552 1.98293L61.1964 6.01974L63.3074 5.22814C64.2279 4.88295 65.1893 4.65864 66.1675 4.56081L66.6624 4.51132C67.9492 4.38264 69.0659 5.39317 69.0659 6.68643V29.7862C69.0659 30.6598 69.1876 31.5292 69.4276 32.3692L69.6639 33.1962C70.6532 36.6586 73.7161 39.1226 77.3101 39.3472H79.4583C80.7621 39.3472 82.0538 39.0973 83.2636 38.6109L82.5028 38.3219C79.2155 37.0732 76.6608 34.4172 75.5407 31.0839C75.128 29.8557 74.9175 28.5686 74.9175 27.273V5.62108C74.9175 2.68867 72.2697 0.467234 69.382 0.976823C68.5092 1.13082 67.6809 1.47425 66.9552 1.98293Z" fill="#F44A01"/>
</g>
<path d="M104.141 39.5456C101.539 39.5456 99.4124 39.056 97.7616 38.0767C96.1108 37.0694 94.8796 35.6983 94.0682 33.9636C93.2848 32.2288 92.893 30.2841 92.893 28.1297C92.893 25.5555 93.3827 23.415 94.362 21.7082C95.3413 19.9734 96.6004 18.6863 98.1393 17.8469C99.6782 16.9795 101.315 16.5458 103.05 16.5458C105.008 16.5458 106.701 16.9516 108.128 17.763C109.555 18.5744 110.661 19.8055 111.444 21.4564C112.227 23.0792 112.619 25.1218 112.619 27.5841C112.619 27.8639 112.605 28.1856 112.577 28.5494C112.549 28.8851 112.521 29.2069 112.493 29.5147H97.8455C97.9854 31.3334 98.615 32.7604 99.7342 33.7957C100.881 34.8309 102.532 35.3486 104.687 35.3486C105.974 35.3486 107.121 35.2367 108.128 35.0128C109.136 34.761 109.919 34.5092 110.479 34.2573L111.192 38.2026C110.633 38.4824 109.695 38.7762 108.38 39.0839C107.093 39.3917 105.68 39.5456 104.141 39.5456ZM97.8875 25.9892H107.876C107.848 24.9539 107.653 24.0306 107.289 23.2191C106.953 22.4077 106.435 21.7642 105.736 21.2885C105.036 20.8128 104.155 20.575 103.092 20.575C102.001 20.575 101.091 20.8408 100.364 21.3724C99.6363 21.8761 99.0627 22.5476 98.643 23.387C98.2513 24.1984 97.9994 25.0658 97.8875 25.9892ZM125.308 39.4617C123.546 39.4617 121.993 39.2378 120.65 38.7901C119.334 38.3145 118.299 37.559 117.544 36.5237C116.816 35.4885 116.453 34.1174 116.453 32.4106C116.453 30.7318 116.858 29.3888 117.67 28.3815C118.509 27.3742 119.628 26.6607 121.027 26.241C122.454 25.7933 123.993 25.5695 125.644 25.5695C126.455 25.5695 127.225 25.6254 127.952 25.7374C128.708 25.8213 129.239 25.9192 129.547 26.0311V25.1498C129.547 24.3104 129.407 23.5549 129.128 22.8834C128.876 22.1839 128.414 21.6243 127.743 21.2046C127.071 20.7849 126.106 20.575 124.847 20.575C123.56 20.575 122.454 20.6729 121.531 20.8688C120.608 21.0647 119.852 21.2605 119.265 21.4564L118.635 17.5112C119.251 17.2873 120.16 17.0775 121.363 16.8816C122.566 16.6578 123.895 16.5458 125.35 16.5458C127.589 16.5458 129.351 16.9096 130.639 17.6371C131.926 18.3366 132.835 19.3299 133.367 20.617C133.926 21.9041 134.206 23.401 134.206 25.1078V38.4124C133.451 38.5803 132.289 38.7901 130.722 39.042C129.184 39.3218 127.379 39.4617 125.308 39.4617ZM125.728 35.6424C126.511 35.6424 127.239 35.6144 127.91 35.5584C128.582 35.5025 129.128 35.4325 129.547 35.3486V29.4308C129.267 29.3468 128.834 29.2629 128.246 29.1789C127.687 29.067 127.043 29.011 126.316 29.011C125.476 29.011 124.665 29.095 123.881 29.2629C123.126 29.4308 122.496 29.7525 121.993 30.2282C121.489 30.6759 121.237 31.3614 121.237 32.2847C121.237 33.5438 121.643 34.4252 122.454 34.9289C123.266 35.4045 124.357 35.6424 125.728 35.6424ZM149.406 39.4617C147.055 39.4617 145.209 39.042 143.866 38.2026C142.523 37.3352 141.571 36.146 141.012 34.6351C140.452 33.0962 140.172 31.3194 140.172 29.3048V17.0915H144.999V28.5074C144.999 30.1582 145.139 31.4873 145.419 32.4946C145.726 33.4739 146.23 34.1874 146.93 34.6351C147.657 35.0828 148.608 35.3066 149.784 35.3066C150.567 35.3066 151.308 35.2646 152.008 35.1807C152.708 35.0968 153.225 35.0268 153.561 34.9708V17.0915H158.346V38.2445C157.394 38.5243 156.135 38.7901 154.568 39.042C153.029 39.3218 151.308 39.4617 149.406 39.4617ZM172.66 39.5036C170.589 39.5036 168.966 39.1399 167.791 38.4124C166.616 37.6849 165.791 36.6357 165.315 35.2646C164.839 33.8936 164.601 32.2568 164.601 30.3541V11.2156L169.428 10.4182V17.0915H177.402V21.0786H169.428V30.3961C169.428 31.5992 169.554 32.5645 169.806 33.292C170.086 34.0195 170.505 34.5511 171.065 34.8869C171.652 35.1947 172.394 35.3486 173.289 35.3486C174.157 35.3486 174.94 35.2646 175.64 35.0968C176.367 34.9009 176.983 34.691 177.486 34.4672L178.284 38.2865C177.668 38.5663 176.885 38.8321 175.933 39.0839C175.01 39.3637 173.919 39.5036 172.66 39.5036ZM183.605 46.8065C182.765 46.8065 181.982 46.7226 181.254 46.5547C180.527 46.3868 179.967 46.2189 179.576 46.051L180.457 42.1897C180.877 42.3297 181.338 42.4556 181.842 42.5675C182.374 42.7074 182.919 42.7773 183.479 42.7773C184.346 42.7773 185.088 42.6234 185.703 42.3157C186.319 42.0359 186.851 41.5882 187.298 40.9726C187.746 40.357 188.152 39.5736 188.515 38.6223C187.452 36.6077 186.417 34.4532 185.41 32.1588C184.402 29.8644 183.437 27.4581 182.514 24.9399C181.59 22.3937 180.765 19.7776 180.037 17.0915H185.158C185.438 18.2666 185.787 19.5537 186.207 20.9527C186.627 22.3238 187.074 23.7368 187.55 25.1917C188.054 26.6467 188.585 28.0877 189.145 29.5147C189.705 30.9417 190.264 32.2987 190.824 33.5858C191.467 31.851 192.055 30.0743 192.586 28.2556C193.146 26.4089 193.678 24.5482 194.181 22.6735C194.685 20.7988 195.147 18.9382 195.566 17.0915H200.519C199.791 19.8335 199.008 22.5196 198.169 25.1498C197.357 27.7519 196.504 30.2702 195.608 32.7044C194.713 35.1107 193.762 37.4471 192.754 39.7135C191.999 41.3643 191.215 42.7074 190.404 43.7427C189.621 44.8059 188.683 45.5754 187.592 46.051C186.529 46.5547 185.2 46.8065 183.605 46.8065Z" fill="#ECE3DC"/>
<defs>
<clipPath id="clip0_13_42">
<rect width="29.2294" height="39.722" fill="white" transform="translate(61.1964)"/>
</clipPath>
<clipPath id="clip1_13_42">
<rect width="16.4884" height="38.5978" fill="white" transform="translate(74.6869)"/>
</clipPath>
</defs>
</svg>
