<svg width="142" height="35" viewBox="0 0 142 35" fill="none" xmlns="http://www.w3.org/2000/svg">
<path d="M2.24578 33.4667L2.24578 13.1069C2.71858 12.9493 3.27018 12.8114 3.90057 12.6932C4.55067 12.5553 5.25001 12.447 5.99861 12.3682C6.7472 12.2894 7.50565 12.25 8.27394 12.25C9.90903 12.25 11.3077 12.575 12.47 13.2251C13.652 13.8752 14.5582 14.8011 15.1886 16.0028C15.8387 17.2045 16.1637 18.6327 16.1637 20.2875C16.1637 21.8635 15.8978 23.2622 15.3659 24.4836C14.834 25.6853 14.0559 26.6309 13.0315 27.3204C12.0268 27.9902 10.7857 28.325 9.30818 28.325C8.53989 28.325 7.84054 28.2265 7.21015 28.0295C6.59945 27.8523 6.07741 27.6454 5.64401 27.409L5.64401 33.4667H2.24578ZM8.71719 25.3996C9.42638 25.3996 10.0272 25.2814 10.5197 25.045C11.0122 24.8086 11.4161 24.4737 11.7313 24.0403C12.0465 23.5872 12.273 23.0553 12.4109 22.4446C12.5685 21.8339 12.6473 21.1444 12.6473 20.3762C12.6473 19.2927 12.47 18.3668 12.1154 17.5985C11.7805 16.8105 11.2782 16.2096 10.6084 15.7959C9.95828 15.3625 9.17028 15.1458 8.24439 15.1458C7.6337 15.1458 7.11165 15.1754 6.67825 15.2345C6.24486 15.2936 5.90011 15.3527 5.64401 15.4118V24.4836C5.95921 24.7003 6.3926 24.9071 6.9442 25.1041C7.4958 25.3011 8.08679 25.3996 8.71719 25.3996ZM19.8198 28V13.3433C20.4896 13.0872 21.317 12.841 22.302 12.6046C23.3067 12.3682 24.4493 12.25 25.7298 12.25C26.1041 12.25 26.5079 12.2795 26.9413 12.3386C27.3747 12.378 27.7884 12.4371 28.1824 12.5159C28.5764 12.5947 28.9015 12.6834 29.1576 12.7819L28.537 15.6186C28.2415 15.5201 27.8377 15.4216 27.3255 15.3231C26.8133 15.2246 26.2223 15.1754 25.5525 15.1754C25.0403 15.1754 24.5675 15.2148 24.1341 15.2936C23.7007 15.3724 23.3954 15.4413 23.2181 15.5004V28H19.8198ZM38.0959 28.3841C36.6578 28.3841 35.3773 28.0492 34.2544 27.3795C33.1512 26.69 32.2845 25.7444 31.6541 24.5427C31.0434 23.3213 30.738 21.893 30.738 20.258C30.738 18.6426 31.0532 17.234 31.6836 16.0323C32.314 14.8109 33.1906 13.8654 34.3135 13.1956C35.4364 12.5258 36.7071 12.1909 38.1255 12.1909C39.5636 12.1909 40.8342 12.5258 41.9374 13.1956C43.0406 13.8654 43.9074 14.8109 44.5378 16.0323C45.1682 17.234 45.4834 18.6426 45.4834 20.258C45.4834 21.893 45.1682 23.3213 44.5378 24.5427C43.9271 25.7444 43.0701 26.69 41.9669 27.3795C40.8834 28.0492 39.5931 28.3841 38.0959 28.3841ZM38.0959 25.4292C38.9233 25.4292 39.6227 25.2223 40.1939 24.8086C40.7652 24.3752 41.2085 23.7744 41.5237 23.0061C41.8389 22.2181 41.9965 21.302 41.9965 20.258C41.9965 19.2139 41.8389 18.3077 41.5237 17.5394C41.2085 16.7711 40.7652 16.1801 40.1939 15.7664C39.6227 15.333 38.9233 15.1163 38.0959 15.1163C37.3079 15.1163 36.6184 15.333 36.0274 15.7664C35.4364 16.1801 34.9833 16.7711 34.6681 17.5394C34.3726 18.3077 34.2249 19.2139 34.2249 20.258C34.2249 21.3217 34.3726 22.2378 34.6681 23.0061C34.9833 23.7744 35.4364 24.3752 36.0274 24.8086C36.6184 25.2223 37.3079 25.4292 38.0959 25.4292Z" fill="#F44A01"/>
<g clip-path="url(#clip0_147_14967)">
<g clip-path="url(#clip1_147_14967)">
<path d="M54.3533 28.3843C53.585 28.3843 52.8265 28.3351 52.078 28.2366C51.3294 28.1578 50.63 28.0593 49.9799 27.9411C49.3495 27.8032 48.7979 27.6554 48.3251 27.4978V5.63099L51.7234 5.06955V13.1662C52.1568 12.9298 52.6788 12.7229 53.2895 12.5456C53.9199 12.3486 54.6192 12.2501 55.3875 12.2501C56.865 12.2501 58.1061 12.585 59.1108 13.2548C60.1352 13.9246 60.9133 14.8702 61.4452 16.0916C61.9771 17.2933 62.2431 18.692 62.2431 20.2877C62.2431 21.9425 61.918 23.3707 61.2679 24.5724C60.6375 25.7741 59.7313 26.7098 58.5494 27.3796C57.3871 28.0494 55.9884 28.3843 54.3533 28.3843ZM54.3237 25.4294C55.2496 25.4294 56.0376 25.2225 56.6877 24.8088C57.3575 24.3951 57.8599 23.7943 58.1948 23.0063C58.5494 22.2183 58.7267 21.2924 58.7267 20.2286C58.7267 19.4603 58.6479 18.7708 58.4903 18.1601C58.3524 17.5297 58.1258 16.988 57.8106 16.5349C57.4954 16.0818 57.0916 15.737 56.5991 15.5006C56.1066 15.2642 55.5057 15.146 54.7965 15.146C54.1661 15.146 53.5751 15.2445 53.0235 15.4415C52.472 15.6385 52.0386 15.8552 51.7234 16.0916V25.193C51.9795 25.2521 52.3242 25.3112 52.7576 25.3703C53.191 25.4097 53.713 25.4294 54.3237 25.4294Z" fill="#F44A01"/>
</g>
<path d="M46.9686 1.39608L42.9141 4.23825L44.4003 3.68091C45.0484 3.43787 45.7253 3.27994 46.414 3.21107L46.7625 3.17622C47.6685 3.08562 48.4546 3.7971 48.4546 4.70764V20.9713C48.4546 21.5864 48.5404 22.1985 48.7094 22.7899L48.8757 23.3722C49.5722 25.8099 51.7287 27.5447 54.2591 27.7029H55.7715C56.6895 27.7029 57.599 27.5269 58.4507 27.1845L57.9151 26.981C55.6007 26.1018 53.8019 24.2318 53.0133 21.885C52.7227 21.0203 52.5746 20.1141 52.5746 19.2018V3.95756C52.5746 1.89297 50.7104 0.328932 48.6772 0.687714C48.0627 0.796141 47.4795 1.03794 46.9686 1.39608Z" fill="#ECE3DC"/>
</g>
<path d="M73.3219 28.3841C71.4898 28.3841 69.9926 28.0394 68.8303 27.3499C67.668 26.6407 66.8012 25.6754 66.2299 24.454C65.6783 23.2326 65.4025 21.8635 65.4025 20.3466C65.4025 18.5342 65.7473 17.0272 66.4368 15.8255C67.1263 14.6041 68.0128 13.6979 69.0963 13.1069C70.1797 12.4962 71.3322 12.1909 72.5536 12.1909C73.9326 12.1909 75.1244 12.4765 76.1291 13.0478C77.1338 13.6191 77.9119 14.4859 78.4635 15.6482C79.0151 16.7908 79.2909 18.2289 79.2909 19.9625C79.2909 20.1595 79.2811 20.386 79.2614 20.6421C79.2417 20.8785 79.222 21.105 79.2023 21.3217H68.8894C68.9879 22.6022 69.4312 23.6069 70.2191 24.3358C71.0268 25.0647 72.1891 25.4292 73.706 25.4292C74.6122 25.4292 75.4199 25.3504 76.1291 25.1928C76.8383 25.0155 77.3899 24.8382 77.7839 24.6609L78.2862 27.4386C77.8922 27.6356 77.2323 27.8424 76.3064 28.0591C75.4002 28.2758 74.4054 28.3841 73.3219 28.3841ZM68.919 18.8396H75.9518C75.9321 18.1107 75.7942 17.4606 75.5381 16.8893C75.3017 16.318 74.9373 15.8649 74.4448 15.53C73.9523 15.1951 73.3317 15.0276 72.5831 15.0276C71.8148 15.0276 71.1746 15.2148 70.6624 15.5891C70.1502 15.9437 69.7463 16.4165 69.4509 17.0075C69.1751 17.5788 68.9978 18.1895 68.919 18.8396ZM88.2249 28.325C86.9838 28.325 85.8905 28.1674 84.9449 27.8523C84.019 27.5174 83.2901 26.9855 82.7582 26.2566C82.246 25.5277 81.9899 24.5624 81.9899 23.3607C81.9899 22.1787 82.2755 21.2331 82.8468 20.5239C83.4378 19.8147 84.2258 19.3124 85.2108 19.0169C86.2155 18.7017 87.299 18.5441 88.4613 18.5441C89.0326 18.5441 89.5743 18.5835 90.0865 18.6623C90.6184 18.7214 90.9927 18.7903 91.2094 18.8691V18.2486C91.2094 17.6576 91.1109 17.1257 90.9139 16.6529C90.7366 16.1604 90.4116 15.7664 89.9388 15.4709C89.466 15.1754 88.7863 15.0276 87.8998 15.0276C86.9937 15.0276 86.2155 15.0966 85.5654 15.2345C84.9153 15.3724 84.3834 15.5103 83.9697 15.6482L83.5265 12.8705C83.9599 12.7129 84.6001 12.5652 85.4472 12.4273C86.2943 12.2697 87.2301 12.1909 88.2544 12.1909C89.8304 12.1909 91.0715 12.447 91.9777 12.9592C92.8839 13.4517 93.5242 14.151 93.8985 15.0572C94.2925 15.9634 94.4894 17.0173 94.4894 18.219V27.5863C93.9576 27.7045 93.14 27.8523 92.0368 28.0295C90.9533 28.2265 89.6827 28.325 88.2249 28.325ZM88.5204 25.636C89.072 25.636 89.5842 25.6163 90.057 25.5769C90.5298 25.5375 90.9139 25.4883 91.2094 25.4292V21.2626C91.0124 21.2035 90.7071 21.1444 90.2934 21.0853C89.8994 21.0065 89.4463 20.9671 88.9341 20.9671C88.3431 20.9671 87.7718 21.0262 87.2202 21.1444C86.6883 21.2626 86.2451 21.4892 85.8905 21.8241C85.5359 22.1393 85.3586 22.6219 85.3586 23.272C85.3586 24.1585 85.6442 24.7791 86.2155 25.1337C86.7868 25.4686 87.5551 25.636 88.5204 25.636ZM105.191 28.325C103.536 28.325 102.236 28.0295 101.291 27.4386C100.345 26.8279 99.6751 25.9906 99.2811 24.9268C98.8871 23.8433 98.6901 22.5924 98.6901 21.174V12.575H102.088V20.6126C102.088 21.7748 102.187 22.7106 102.384 23.4198C102.601 24.1093 102.955 24.6116 103.448 24.9268C103.96 25.242 104.63 25.3996 105.457 25.3996C106.009 25.3996 106.531 25.3701 107.023 25.311C107.516 25.2519 107.88 25.2026 108.117 25.1632V12.575H111.485V27.4681C110.815 27.6651 109.929 27.8523 108.826 28.0295C107.742 28.2265 106.531 28.325 105.191 28.325ZM121.563 28.3546C120.106 28.3546 118.963 28.0985 118.136 27.5863C117.308 27.0741 116.727 26.3354 116.392 25.3701C116.057 24.4048 115.89 23.2523 115.89 21.9127V8.43804L119.288 7.87659V12.575H124.902V15.3822H119.288V21.9423C119.288 22.7894 119.377 23.469 119.554 23.9812C119.751 24.4934 120.046 24.8677 120.44 25.1041C120.854 25.3208 121.376 25.4292 122.007 25.4292C122.617 25.4292 123.169 25.3701 123.661 25.2519C124.174 25.114 124.607 24.9662 124.962 24.8086L125.523 27.4977C125.09 27.6947 124.538 27.8818 123.868 28.0591C123.218 28.2561 122.45 28.3546 121.563 28.3546ZM129.269 33.4963C128.678 33.4963 128.127 33.4372 127.615 33.319C127.102 33.2008 126.708 33.0826 126.433 32.9644L127.053 30.2458C127.349 30.3443 127.674 30.4329 128.028 30.5117C128.403 30.6102 128.787 30.6595 129.181 30.6595C129.791 30.6595 130.313 30.5511 130.747 30.3344C131.18 30.1374 131.555 29.8222 131.87 29.3888C132.185 28.9554 132.471 28.4038 132.727 27.7341C131.978 26.3157 131.249 24.7988 130.54 23.1834C129.831 21.568 129.151 19.8738 128.501 18.1008C127.851 16.3081 127.27 14.4662 126.758 12.575L130.363 12.575C130.56 13.4024 130.806 14.3086 131.101 15.2936C131.397 16.2589 131.712 17.2537 132.047 18.2781C132.402 19.3025 132.776 20.3171 133.17 21.3217C133.564 22.3264 133.958 23.2819 134.352 24.1881C134.805 22.9667 135.219 21.7157 135.593 20.4353C135.987 19.1351 136.361 17.825 136.716 16.5051C137.07 15.1852 137.396 13.8752 137.691 12.575H141.178C140.666 14.5056 140.114 16.3968 139.523 18.2486C138.952 20.0807 138.351 21.8536 137.721 23.5675C137.09 25.2617 136.42 26.9067 135.711 28.5023C135.179 29.6646 134.628 30.6102 134.056 31.3391C133.505 32.0877 132.845 32.6295 132.077 32.9644C131.328 33.319 130.392 33.4963 129.269 33.4963Z" fill="#F44A01"/>
<defs>
<clipPath id="clip0_147_14967">
<rect width="20.5793" height="27.9668" fill="white" transform="translate(42.9138)"/>
</clipPath>
<clipPath id="clip1_147_14967">
<rect width="11.6088" height="27.1753" fill="white" transform="translate(52.4121 3.05176e-05)"/>
</clipPath>
</defs>
</svg>
